<mxfile host="app.diagrams.net" modified="2022-01-11T02:53:21.210Z" agent="5.0 (Windows NT 10.0; Win64; x64) AppleWebKit/537.36 (KHTML, like Gecko) Chrome/96.0.4664.110 Safari/537.36" etag="VSvrf2iH4UbWzn6C-t6O" version="16.2.4" type="github">
  <diagram id="c7OQ0OfnqlWH6MQjR4xk" name="Page-1">
    <mxGraphModel dx="868" dy="393" grid="1" gridSize="10" guides="1" tooltips="1" connect="1" arrows="1" fold="1" page="1" pageScale="1" pageWidth="850" pageHeight="1100" math="0" shadow="0">
      <root>
        <mxCell id="0" />
        <mxCell id="1" parent="0" />
        <mxCell id="E4PPQkLsFGlMCWQORoEX-47" value="" style="points=[[0.25,0,0],[0.5,0,0],[0.75,0,0],[1,0.25,0],[1,0.5,0],[1,0.75,0],[0.75,1,0],[0.5,1,0],[0.25,1,0],[0,0.75,0],[0,0.5,0],[0,0.25,0]];rounded=1;arcSize=10;dashed=1;strokeColor=#000000;fillColor=none;gradientColor=none;dashPattern=8 3 1 3;strokeWidth=2;fontSize=12;" parent="1" vertex="1">
          <mxGeometry x="280" y="495" width="740" height="435" as="geometry" />
        </mxCell>
        <mxCell id="E4PPQkLsFGlMCWQORoEX-14" value="" style="points=[[0.25,0,0],[0.5,0,0],[0.75,0,0],[1,0.25,0],[1,0.5,0],[1,0.75,0],[0.75,1,0],[0.5,1,0],[0.25,1,0],[0,0.75,0],[0,0.5,0],[0,0.25,0]];rounded=1;arcSize=10;dashed=1;strokeColor=#000000;fillColor=none;gradientColor=none;dashPattern=8 3 1 3;strokeWidth=2;" parent="1" vertex="1">
          <mxGeometry x="450" y="200" width="570" height="200" as="geometry" />
        </mxCell>
        <mxCell id="E4PPQkLsFGlMCWQORoEX-1" value="Kafka Topics" style="swimlane;fontStyle=0;childLayout=stackLayout;horizontal=1;startSize=30;horizontalStack=0;resizeParent=1;resizeParentMax=0;resizeLast=0;collapsible=1;marginBottom=0;" parent="1" vertex="1">
          <mxGeometry x="70" y="30" width="180" height="120" as="geometry" />
        </mxCell>
        <mxCell id="E4PPQkLsFGlMCWQORoEX-2" value="itinerary-C19" style="text;strokeColor=none;fillColor=none;align=left;verticalAlign=middle;spacingLeft=4;spacingRight=4;overflow=hidden;points=[[0,0.5],[1,0.5]];portConstraint=eastwest;rotatable=0;" parent="E4PPQkLsFGlMCWQORoEX-1" vertex="1">
          <mxGeometry y="30" width="180" height="30" as="geometry" />
        </mxCell>
        <mxCell id="E4PPQkLsFGlMCWQORoEX-3" value="itinerary-C19-COUNTRY_AUS" style="text;strokeColor=none;fillColor=none;align=left;verticalAlign=middle;spacingLeft=4;spacingRight=4;overflow=hidden;points=[[0,0.5],[1,0.5]];portConstraint=eastwest;rotatable=0;" parent="E4PPQkLsFGlMCWQORoEX-1" vertex="1">
          <mxGeometry y="60" width="180" height="30" as="geometry" />
        </mxCell>
        <mxCell id="E4PPQkLsFGlMCWQORoEX-4" value="itinerary-C19-COUNTRY_US" style="text;strokeColor=none;fillColor=none;align=left;verticalAlign=middle;spacingLeft=4;spacingRight=4;overflow=hidden;points=[[0,0.5],[1,0.5]];portConstraint=eastwest;rotatable=0;" parent="E4PPQkLsFGlMCWQORoEX-1" vertex="1">
          <mxGeometry y="90" width="180" height="30" as="geometry" />
        </mxCell>
        <mxCell id="E4PPQkLsFGlMCWQORoEX-16" style="edgeStyle=orthogonalEdgeStyle;rounded=0;orthogonalLoop=1;jettySize=auto;html=1;exitX=1;exitY=0.5;exitDx=0;exitDy=0;exitPerimeter=0;entryX=0;entryY=0.5;entryDx=0;entryDy=0;" parent="1" source="E4PPQkLsFGlMCWQORoEX-5" target="E4PPQkLsFGlMCWQORoEX-8" edge="1">
          <mxGeometry relative="1" as="geometry" />
        </mxCell>
        <mxCell id="E4PPQkLsFGlMCWQORoEX-5" value="Australia" style="html=1;strokeColor=none;fillColor=#0079D6;labelPosition=center;verticalLabelPosition=middle;verticalAlign=top;align=center;fontSize=12;outlineConnect=0;spacingTop=-6;fontColor=#FFFFFF;sketch=0;shape=mxgraph.sitemap.page;" parent="1" vertex="1">
          <mxGeometry x="90" y="220" width="140" height="70" as="geometry" />
        </mxCell>
        <mxCell id="E4PPQkLsFGlMCWQORoEX-15" style="edgeStyle=orthogonalEdgeStyle;rounded=0;orthogonalLoop=1;jettySize=auto;html=1;exitX=1;exitY=0.5;exitDx=0;exitDy=0;exitPerimeter=0;entryX=0;entryY=0.5;entryDx=0;entryDy=0;" parent="1" source="E4PPQkLsFGlMCWQORoEX-6" target="E4PPQkLsFGlMCWQORoEX-9" edge="1">
          <mxGeometry relative="1" as="geometry" />
        </mxCell>
        <mxCell id="E4PPQkLsFGlMCWQORoEX-6" value="US" style="html=1;strokeColor=none;fillColor=#0079D6;labelPosition=center;verticalLabelPosition=middle;verticalAlign=top;align=center;fontSize=12;outlineConnect=0;spacingTop=-6;fontColor=#FFFFFF;sketch=0;shape=mxgraph.sitemap.page;" parent="1" vertex="1">
          <mxGeometry x="90" y="330" width="140" height="70" as="geometry" />
        </mxCell>
        <mxCell id="E4PPQkLsFGlMCWQORoEX-17" style="edgeStyle=orthogonalEdgeStyle;rounded=0;orthogonalLoop=1;jettySize=auto;html=1;exitX=1;exitY=0.5;exitDx=0;exitDy=0;entryX=0;entryY=0.5;entryDx=0;entryDy=0;entryPerimeter=0;" parent="1" source="E4PPQkLsFGlMCWQORoEX-8" target="E4PPQkLsFGlMCWQORoEX-14" edge="1">
          <mxGeometry relative="1" as="geometry" />
        </mxCell>
        <mxCell id="E4PPQkLsFGlMCWQORoEX-8" value="Process and send a request to External System" style="rounded=1;whiteSpace=wrap;html=1;absoluteArcSize=1;arcSize=14;strokeWidth=2;" parent="1" vertex="1">
          <mxGeometry x="290" y="215" width="90" height="80" as="geometry" />
        </mxCell>
        <mxCell id="E4PPQkLsFGlMCWQORoEX-19" style="edgeStyle=orthogonalEdgeStyle;rounded=0;orthogonalLoop=1;jettySize=auto;html=1;exitX=1;exitY=0.5;exitDx=0;exitDy=0;entryX=0;entryY=0.5;entryDx=0;entryDy=0;entryPerimeter=0;" parent="1" source="E4PPQkLsFGlMCWQORoEX-9" target="E4PPQkLsFGlMCWQORoEX-14" edge="1">
          <mxGeometry relative="1" as="geometry" />
        </mxCell>
        <mxCell id="E4PPQkLsFGlMCWQORoEX-9" value="Process and send a request to External System" style="rounded=1;whiteSpace=wrap;html=1;absoluteArcSize=1;arcSize=14;strokeWidth=2;" parent="1" vertex="1">
          <mxGeometry x="290" y="325" width="90" height="80" as="geometry" />
        </mxCell>
        <mxCell id="E4PPQkLsFGlMCWQORoEX-23" style="edgeStyle=orthogonalEdgeStyle;rounded=0;orthogonalLoop=1;jettySize=auto;html=1;exitX=1;exitY=0.5;exitDx=0;exitDy=0;entryX=0;entryY=0.5;entryDx=0;entryDy=0;" parent="1" source="E4PPQkLsFGlMCWQORoEX-10" target="E4PPQkLsFGlMCWQORoEX-11" edge="1">
          <mxGeometry relative="1" as="geometry" />
        </mxCell>
        <mxCell id="E4PPQkLsFGlMCWQORoEX-10" value="Receives the request" style="rounded=1;whiteSpace=wrap;html=1;absoluteArcSize=1;arcSize=14;strokeWidth=2;" parent="1" vertex="1">
          <mxGeometry x="470" y="250" width="100" height="100" as="geometry" />
        </mxCell>
        <mxCell id="E4PPQkLsFGlMCWQORoEX-24" style="edgeStyle=orthogonalEdgeStyle;rounded=0;orthogonalLoop=1;jettySize=auto;html=1;exitX=1;exitY=0.5;exitDx=0;exitDy=0;entryX=0;entryY=0.5;entryDx=0;entryDy=0;" parent="1" source="E4PPQkLsFGlMCWQORoEX-11" target="E4PPQkLsFGlMCWQORoEX-12" edge="1">
          <mxGeometry relative="1" as="geometry" />
        </mxCell>
        <mxCell id="E4PPQkLsFGlMCWQORoEX-11" value="Create ProducerRecord" style="rounded=1;whiteSpace=wrap;html=1;absoluteArcSize=1;arcSize=14;strokeWidth=2;" parent="1" vertex="1">
          <mxGeometry x="610" y="250" width="100" height="100" as="geometry" />
        </mxCell>
        <mxCell id="E4PPQkLsFGlMCWQORoEX-25" style="edgeStyle=orthogonalEdgeStyle;rounded=0;orthogonalLoop=1;jettySize=auto;html=1;exitX=1;exitY=0.5;exitDx=0;exitDy=0;entryX=0;entryY=0.5;entryDx=0;entryDy=0;" parent="1" source="E4PPQkLsFGlMCWQORoEX-12" target="E4PPQkLsFGlMCWQORoEX-13" edge="1">
          <mxGeometry relative="1" as="geometry" />
        </mxCell>
        <mxCell id="E4PPQkLsFGlMCWQORoEX-12" value="Add key specific to Country" style="rounded=1;whiteSpace=wrap;html=1;absoluteArcSize=1;arcSize=14;strokeWidth=2;" parent="1" vertex="1">
          <mxGeometry x="750" y="250" width="100" height="100" as="geometry" />
        </mxCell>
        <mxCell id="E4PPQkLsFGlMCWQORoEX-21" style="edgeStyle=orthogonalEdgeStyle;rounded=0;orthogonalLoop=1;jettySize=auto;html=1;exitX=1;exitY=0.5;exitDx=0;exitDy=0;" parent="1" source="E4PPQkLsFGlMCWQORoEX-13" target="E4PPQkLsFGlMCWQORoEX-20" edge="1">
          <mxGeometry relative="1" as="geometry" />
        </mxCell>
        <mxCell id="E4PPQkLsFGlMCWQORoEX-13" value="Post the message into common pool&amp;nbsp;&lt;br&gt;&lt;b&gt;itinerary-C19&lt;/b&gt;" style="rounded=1;whiteSpace=wrap;html=1;absoluteArcSize=1;arcSize=14;strokeWidth=2;" parent="1" vertex="1">
          <mxGeometry x="890" y="250" width="100" height="100" as="geometry" />
        </mxCell>
        <mxCell id="E4PPQkLsFGlMCWQORoEX-20" value="&lt;b&gt;&lt;font style=&quot;font-size: 17px&quot;&gt;&lt;i&gt;Topic:&amp;nbsp;&lt;/i&gt;itinerary-C19&lt;/font&gt;&lt;/b&gt;" style="outlineConnect=0;dashed=0;verticalLabelPosition=bottom;verticalAlign=top;align=center;html=1;shape=mxgraph.aws3.topic;fillColor=#5294CF;gradientColor=none;" parent="1" vertex="1">
          <mxGeometry x="1100" y="267" width="49.5" height="66" as="geometry" />
        </mxCell>
        <mxCell id="E4PPQkLsFGlMCWQORoEX-22" value="external-system" style="text;strokeColor=none;fillColor=none;html=1;fontSize=24;fontStyle=1;verticalAlign=middle;align=center;" parent="1" vertex="1">
          <mxGeometry x="670" y="160" width="100" height="40" as="geometry" />
        </mxCell>
        <mxCell id="E4PPQkLsFGlMCWQORoEX-42" style="edgeStyle=orthogonalEdgeStyle;rounded=0;orthogonalLoop=1;jettySize=auto;html=1;exitX=1;exitY=0.5;exitDx=0;exitDy=0;exitPerimeter=0;entryX=0;entryY=0.5;entryDx=0;entryDy=0;fontSize=12;" parent="1" source="E4PPQkLsFGlMCWQORoEX-26" target="E4PPQkLsFGlMCWQORoEX-28" edge="1">
          <mxGeometry relative="1" as="geometry" />
        </mxCell>
        <mxCell id="E4PPQkLsFGlMCWQORoEX-26" value="&lt;b&gt;&lt;font style=&quot;font-size: 17px&quot;&gt;&lt;i&gt;Topic: &lt;/i&gt;itinerary-C19&lt;/font&gt;&lt;/b&gt;" style="outlineConnect=0;dashed=0;verticalLabelPosition=bottom;verticalAlign=top;align=center;html=1;shape=mxgraph.aws3.topic;fillColor=#5294CF;gradientColor=none;" parent="1" vertex="1">
          <mxGeometry x="160" y="562" width="49.5" height="66" as="geometry" />
        </mxCell>
        <mxCell id="E4PPQkLsFGlMCWQORoEX-39" style="edgeStyle=orthogonalEdgeStyle;rounded=0;orthogonalLoop=1;jettySize=auto;html=1;exitX=1;exitY=0.5;exitDx=0;exitDy=0;entryX=0;entryY=0.5;entryDx=0;entryDy=0;fontSize=12;" parent="1" source="E4PPQkLsFGlMCWQORoEX-28" target="E4PPQkLsFGlMCWQORoEX-30" edge="1">
          <mxGeometry relative="1" as="geometry" />
        </mxCell>
        <mxCell id="E4PPQkLsFGlMCWQORoEX-28" value="Poll the ConsumerRecords from&amp;nbsp;&lt;br&gt;&lt;b&gt;&lt;u&gt;&lt;i&gt;itinerary-C19&lt;/i&gt;&lt;/u&gt;&lt;/b&gt;&lt;span style=&quot;color: rgba(0 , 0 , 0 , 0) ; font-family: monospace ; font-size: 0px&quot;&gt;%3CmxGraphModel%3E%3Croot%3E%3CmxCell%20id%3D%220%22%2F%3E%3CmxCell%20id%3D%221%22%20parent%3D%220%22%2F%3E%3CmxCell%20id%3D%222%22%20value%3D%22Process%20and%20send%20a%20request%20to%20External%20System%22%20style%3D%22rounded%3D1%3BwhiteSpace%3Dwrap%3Bhtml%3D1%3BabsoluteArcSize%3D1%3BarcSize%3D14%3BstrokeWidth%3D2%3B%22%20vertex%3D%221%22%20parent%3D%221%22%3E%3CmxGeometry%20x%3D%22290%22%20y%3D%22325%22%20width%3D%2290%22%20height%3D%2280%22%20as%3D%22geometry%22%2F%3E%3C%2FmxCell%3E%3C%2Froot%3E%3C%2FmxGraphModel%3E&lt;/span&gt;" style="rounded=1;whiteSpace=wrap;html=1;absoluteArcSize=1;arcSize=14;strokeWidth=2;" parent="1" vertex="1">
          <mxGeometry x="300" y="550" width="135" height="90" as="geometry" />
        </mxCell>
        <mxCell id="E4PPQkLsFGlMCWQORoEX-40" style="edgeStyle=orthogonalEdgeStyle;rounded=0;orthogonalLoop=1;jettySize=auto;html=1;exitX=1;exitY=0.5;exitDx=0;exitDy=0;entryX=0;entryY=0.5;entryDx=0;entryDy=0;entryPerimeter=0;fontSize=12;" parent="1" source="E4PPQkLsFGlMCWQORoEX-30" target="E4PPQkLsFGlMCWQORoEX-32" edge="1">
          <mxGeometry relative="1" as="geometry" />
        </mxCell>
        <mxCell id="E4PPQkLsFGlMCWQORoEX-30" value="Get the Key from the ConsumerRecord" style="rounded=1;whiteSpace=wrap;html=1;absoluteArcSize=1;arcSize=14;strokeWidth=2;" parent="1" vertex="1">
          <mxGeometry x="460" y="550" width="135" height="90" as="geometry" />
        </mxCell>
        <mxCell id="E4PPQkLsFGlMCWQORoEX-36" style="edgeStyle=orthogonalEdgeStyle;rounded=0;orthogonalLoop=1;jettySize=auto;html=1;exitX=0.5;exitY=1;exitDx=0;exitDy=0;exitPerimeter=0;entryX=0.5;entryY=0;entryDx=0;entryDy=0;fontSize=12;" parent="1" source="E4PPQkLsFGlMCWQORoEX-32" target="E4PPQkLsFGlMCWQORoEX-35" edge="1">
          <mxGeometry relative="1" as="geometry" />
        </mxCell>
        <mxCell id="E4PPQkLsFGlMCWQORoEX-37" style="edgeStyle=orthogonalEdgeStyle;rounded=0;orthogonalLoop=1;jettySize=auto;html=1;exitX=1;exitY=0.5;exitDx=0;exitDy=0;exitPerimeter=0;entryX=0;entryY=0.5;entryDx=0;entryDy=0;fontSize=12;" parent="1" source="E4PPQkLsFGlMCWQORoEX-32" target="E4PPQkLsFGlMCWQORoEX-33" edge="1">
          <mxGeometry relative="1" as="geometry" />
        </mxCell>
        <mxCell id="E4PPQkLsFGlMCWQORoEX-32" value="&lt;font style=&quot;font-size: 12px&quot;&gt;topic &lt;br&gt;exists? [Based &lt;br&gt;on key]&lt;/font&gt;" style="strokeWidth=2;html=1;shape=mxgraph.flowchart.decision;whiteSpace=wrap;fontSize=17;" parent="1" vertex="1">
          <mxGeometry x="630" y="545" width="100" height="100" as="geometry" />
        </mxCell>
        <mxCell id="E4PPQkLsFGlMCWQORoEX-38" style="edgeStyle=orthogonalEdgeStyle;rounded=0;orthogonalLoop=1;jettySize=auto;html=1;exitX=1;exitY=0.5;exitDx=0;exitDy=0;entryX=0;entryY=0.5;entryDx=0;entryDy=0;fontSize=12;" parent="1" source="E4PPQkLsFGlMCWQORoEX-33" target="E4PPQkLsFGlMCWQORoEX-34" edge="1">
          <mxGeometry relative="1" as="geometry" />
        </mxCell>
        <mxCell id="E4PPQkLsFGlMCWQORoEX-33" value="Create a new topic" style="rounded=1;whiteSpace=wrap;html=1;absoluteArcSize=1;arcSize=14;strokeWidth=2;fontSize=12;" parent="1" vertex="1">
          <mxGeometry x="770" y="545" width="100" height="100" as="geometry" />
        </mxCell>
        <mxCell id="E4PPQkLsFGlMCWQORoEX-49" style="edgeStyle=orthogonalEdgeStyle;rounded=0;orthogonalLoop=1;jettySize=auto;html=1;exitX=1;exitY=0.5;exitDx=0;exitDy=0;entryX=0;entryY=0.5;entryDx=0;entryDy=0;entryPerimeter=0;fontSize=12;" parent="1" source="E4PPQkLsFGlMCWQORoEX-34" target="E4PPQkLsFGlMCWQORoEX-48" edge="1">
          <mxGeometry relative="1" as="geometry" />
        </mxCell>
        <mxCell id="E4PPQkLsFGlMCWQORoEX-34" value="Post the message into the newly created topic" style="rounded=1;whiteSpace=wrap;html=1;absoluteArcSize=1;arcSize=14;strokeWidth=2;" parent="1" vertex="1">
          <mxGeometry x="900" y="545" width="100" height="100" as="geometry" />
        </mxCell>
        <mxCell id="E4PPQkLsFGlMCWQORoEX-35" value="Post the message into the existing topic" style="rounded=1;whiteSpace=wrap;html=1;absoluteArcSize=1;arcSize=14;strokeWidth=2;" parent="1" vertex="1">
          <mxGeometry x="630" y="785" width="100" height="100" as="geometry" />
        </mxCell>
        <mxCell id="E4PPQkLsFGlMCWQORoEX-43" value="&lt;blockquote style=&quot;margin: 0 0 0 40px ; border: none ; padding: 0px&quot;&gt;&lt;blockquote style=&quot;margin: 0 0 0 40px ; border: none ; padding: 0px&quot;&gt;&lt;blockquote style=&quot;margin: 0 0 0 40px ; border: none ; padding: 0px&quot;&gt;&lt;blockquote style=&quot;margin: 0 0 0 40px ; border: none ; padding: 0px&quot;&gt;&lt;blockquote style=&quot;margin: 0 0 0 40px ; border: none ; padding: 0px&quot;&gt;&lt;blockquote style=&quot;margin: 0 0 0 40px ; border: none ; padding: 0px&quot;&gt;&lt;div style=&quot;text-align: right&quot;&gt;&lt;b&gt;&lt;font style=&quot;font-size: 17px&quot;&gt;&lt;i&gt;Topic:&amp;nbsp;&lt;/i&gt;&lt;/font&gt;&lt;/b&gt;&lt;span style=&quot;font-size: 17px&quot;&gt;&lt;b&gt;itinerary-C19-COUNTRY_AUS&lt;/b&gt;&lt;/span&gt;&lt;/div&gt;&lt;/blockquote&gt;&lt;/blockquote&gt;&lt;/blockquote&gt;&lt;/blockquote&gt;&lt;/blockquote&gt;&lt;/blockquote&gt;" style="outlineConnect=0;dashed=0;verticalLabelPosition=bottom;verticalAlign=top;align=center;html=1;shape=mxgraph.aws3.topic;fillColor=#5294CF;gradientColor=none;" parent="1" vertex="1">
          <mxGeometry x="1090" y="730" width="49.5" height="66" as="geometry" />
        </mxCell>
        <mxCell id="E4PPQkLsFGlMCWQORoEX-44" value="&lt;blockquote style=&quot;margin: 0 0 0 40px ; border: none ; padding: 0px&quot;&gt;&lt;blockquote style=&quot;margin: 0 0 0 40px ; border: none ; padding: 0px&quot;&gt;&lt;blockquote style=&quot;margin: 0 0 0 40px ; border: none ; padding: 0px&quot;&gt;&lt;blockquote style=&quot;margin: 0 0 0 40px ; border: none ; padding: 0px&quot;&gt;&lt;blockquote style=&quot;margin: 0 0 0 40px ; border: none ; padding: 0px&quot;&gt;&lt;b&gt;&lt;font style=&quot;font-size: 17px&quot;&gt;&lt;i&gt;Topic:&amp;nbsp;&lt;/i&gt;&lt;/font&gt;&lt;/b&gt;&lt;span style=&quot;font-size: 17px&quot;&gt;&lt;b&gt;itinerary-C19-COUNTRY_US&lt;/b&gt;&lt;/span&gt;&lt;/blockquote&gt;&lt;/blockquote&gt;&lt;/blockquote&gt;&lt;/blockquote&gt;&lt;/blockquote&gt;" style="outlineConnect=0;dashed=0;verticalLabelPosition=bottom;verticalAlign=top;align=center;html=1;shape=mxgraph.aws3.topic;fillColor=#5294CF;gradientColor=none;" parent="1" vertex="1">
          <mxGeometry x="1090" y="860" width="49.5" height="66" as="geometry" />
        </mxCell>
        <mxCell id="E4PPQkLsFGlMCWQORoEX-45" value="" style="strokeWidth=2;html=1;shape=mxgraph.flowchart.annotation_2;align=left;labelPosition=right;pointerEvents=1;fontSize=12;" parent="1" vertex="1">
          <mxGeometry x="1050" y="780" width="40" height="110" as="geometry" />
        </mxCell>
        <mxCell id="E4PPQkLsFGlMCWQORoEX-48" value="&lt;blockquote style=&quot;margin: 0 0 0 40px ; border: none ; padding: 0px&quot;&gt;&lt;blockquote style=&quot;margin: 0 0 0 40px ; border: none ; padding: 0px&quot;&gt;&lt;blockquote style=&quot;margin: 0 0 0 40px ; border: none ; padding: 0px&quot;&gt;&lt;div style=&quot;text-align: right&quot;&gt;&lt;b&gt;&lt;font style=&quot;font-size: 17px&quot;&gt;&lt;i&gt;Topic:&amp;nbsp;&lt;/i&gt;&lt;/font&gt;&lt;/b&gt;&lt;span style=&quot;font-size: 17px&quot;&gt;&lt;b&gt;itinerary-C19-XXX&lt;/b&gt;&lt;/span&gt;&lt;/div&gt;&lt;/blockquote&gt;&lt;/blockquote&gt;&lt;/blockquote&gt;" style="outlineConnect=0;dashed=0;verticalLabelPosition=bottom;verticalAlign=top;align=center;html=1;shape=mxgraph.aws3.topic;fillColor=#5294CF;gradientColor=none;" parent="1" vertex="1">
          <mxGeometry x="1090" y="562" width="49.5" height="66" as="geometry" />
        </mxCell>
        <mxCell id="E4PPQkLsFGlMCWQORoEX-51" value="" style="line;strokeWidth=2;html=1;fontSize=12;" parent="1" vertex="1">
          <mxGeometry x="730" y="830" width="320" height="10" as="geometry" />
        </mxCell>
        <mxCell id="E4PPQkLsFGlMCWQORoEX-52" value="front-receiver" style="text;strokeColor=none;fillColor=none;html=1;fontSize=24;fontStyle=1;verticalAlign=middle;align=center;" parent="1" vertex="1">
          <mxGeometry x="600" y="455" width="100" height="40" as="geometry" />
        </mxCell>
      </root>
    </mxGraphModel>
  </diagram>
</mxfile>
